<svg width="375" height="108" xmlns="http://www.w3.org/2000/svg" xmlns:xlink="http://www.w3.org/1999/xlink" overflow="hidden"><defs><filter id="fx0" x="-10%" y="-10%" width="120%" height="120%" filterUnits="userSpaceOnUse" primitiveUnits="userSpaceOnUse"><feComponentTransfer color-interpolation-filters="sRGB"><feFuncR type="discrete" tableValues="0 0"/><feFuncG type="discrete" tableValues="0 0"/><feFuncB type="discrete" tableValues="0 0"/><feFuncA type="linear" slope="0.301961" intercept="0"/></feComponentTransfer><feGaussianBlur stdDeviation="1.1429 1.1429"/></filter><clipPath id="clip1"><rect x="328" y="458" width="375" height="108"/></clipPath><clipPath id="clip2"><rect x="1" y="2" width="347" height="80"/></clipPath><clipPath id="clip3"><rect x="0" y="0" width="349" height="84"/></clipPath></defs><g clip-path="url(#clip1)" transform="translate(-328 -458)"><g clip-path="url(#clip2)" filter="url(#fx0)" transform="translate(340 481)"><g clip-path="url(#clip3)"><path d="M334.45 52.5037 343.864 52.5037 343.864 62.7381 334.45 62.7381ZM315.45 52.5037 324.864 52.5037 324.864 62.7381 315.45 62.7381ZM296.45 52.5037 305.864 52.5037 305.864 62.7381 296.45 62.7381ZM112.95 43.1678 108.692 43.324C104.864 43.5063 102.11 44.1834 100.431 45.3553 98.7511 46.5272 97.9112 48.3631 97.9112 50.8631 97.9112 55.0818 99.9164 57.1912 103.927 57.1912 106.713 57.1912 108.914 56.2212 110.528 54.2811 112.143 52.341 112.95 49.8475 112.95 46.8006ZM61.63 28.5193C54.0779 28.5193 50.3019 33.2199 50.3019 42.6209 50.3019 47.2303 51.2263 50.7589 53.0753 53.2068 54.9243 55.6548 57.6065 56.8787 61.1222 56.8787 68.7263 56.8787 72.5284 52.1261 72.5284 42.6209 72.5284 33.2199 68.8956 28.5193 61.63 28.5193ZM266.575 28.4803C263.32 28.4803 260.801 29.6196 259.017 31.8983 257.233 34.1769 256.341 37.699 256.341 42.4647 256.341 51.6313 259.726 56.2147 266.497 56.2147 269.909 56.2147 272.5 54.9972 274.271 52.5623 276.041 50.1274 276.927 46.6964 276.927 42.2693 276.927 37.8423 276.041 34.4373 274.271 32.0545 272.5 29.6717 269.935 28.4803 266.575 28.4803ZM150.302 28.4803C143.583 28.4803 140.224 33.1938 140.224 42.6209 140.224 52.1522 143.544 56.9178 150.185 56.9178 153.7 56.9178 156.37 55.7003 158.192 53.2654 160.015 50.8305 160.927 47.2954 160.927 42.66 160.927 38.0246 160.028 34.5024 158.232 32.0936 156.435 29.6847 153.791 28.4803 150.302 28.4803ZM181.466 22.699 190.45 22.699 190.45 62.7381 181.466 62.7381ZM263.88 21.9178C266.849 21.9178 269.459 22.5884 271.712 23.9295 273.965 25.2706 275.677 27.1652 276.849 29.6131L277.005 29.6131C277.005 27.3735 277.174 25.0688 277.513 22.699L286.107 22.699C285.898 25.0428 285.794 28.0115 285.794 31.6053L285.794 61.5662C285.794 66.0975 284.114 69.9972 280.755 73.2654 277.396 76.5337 272.617 78.1678 266.419 78.1678 256.185 78.1678 250.273 74.5871 248.685 67.4256L257.63 66.0584C258.62 69.7303 261.64 71.5662 266.692 71.5662 270 71.5662 272.526 70.5766 274.271 68.5975 276.015 66.6183 276.888 64.3136 276.888 61.6834L276.888 57.4647C276.888 56.6053 276.927 55.7459 277.005 54.8865L276.849 54.8865C275.495 57.5688 273.704 59.5675 271.478 60.8826 269.251 62.1977 266.458 62.8553 263.099 62.8553 257.89 62.8553 253.893 61.0845 251.107 57.5428 248.32 54.0011 246.927 48.9751 246.927 42.4647 246.927 35.8501 248.392 30.772 251.321 27.2303 254.251 23.6886 258.437 21.9178 263.88 21.9178ZM224.458 21.8787C228.911 21.8787 232.251 23.1938 234.478 25.824 236.704 28.4542 237.817 32.5167 237.817 38.0115L237.817 62.7381 228.794 62.7381 228.794 40.3553C228.794 36.2928 228.163 33.3761 226.9 31.6053 225.636 29.8345 223.638 28.949 220.903 28.949 217.961 28.949 215.65 30.0819 213.97 32.3475 212.29 34.6131 211.45 37.686 211.45 41.5662L211.45 62.7381 202.466 62.7381 202.466 31.9178C202.466 28.8188 202.349 25.7459 202.114 22.699L210.669 22.699C210.955 26.6053 211.099 29.1834 211.099 30.4334L211.255 30.4334C212.791 27.4386 214.575 25.2641 216.607 23.91 218.638 22.5558 221.255 21.8787 224.458 21.8787ZM106.427 21.8787C111.765 21.8787 115.678 23.1417 118.165 25.6678 120.652 28.1938 121.896 32.1131 121.896 37.4256L121.896 62.7381 113.224 62.7381 112.911 56.41C111.583 59.0141 109.982 60.8501 108.107 61.9178 106.232 62.9855 103.927 63.5193 101.192 63.5193 97.0779 63.5193 93.9334 62.4516 91.7589 60.3162 89.5844 58.1808 88.4972 55.2121 88.4972 51.41 88.4972 47.2433 89.9815 44.0532 92.9503 41.8397 95.919 39.6261 100.294 38.4282 106.075 38.2459L112.911 38.0115 112.911 36.7615C112.911 33.6626 112.41 31.4165 111.407 30.0233 110.405 28.63 108.705 27.9334 106.31 27.9334 104.2 27.9334 102.644 28.3305 101.642 29.1248 100.639 29.9191 99.9555 31.1496 99.5909 32.8162L90.919 31.449C91.7003 28.0376 93.3344 25.5897 95.8214 24.1053 98.3084 22.6209 101.844 21.8787 106.427 21.8787ZM61.4347 21.8787C68.1274 21.8787 73.2185 23.6561 76.7081 27.2108 80.1977 30.7654 81.9425 35.9022 81.9425 42.6209 81.9425 49.1574 80.1261 54.2746 76.4933 57.9725 72.8604 61.6704 67.7628 63.5193 61.2003 63.5193 54.8461 63.5193 49.8722 61.6443 46.2784 57.8943 42.6847 54.1443 40.8878 49.0532 40.8878 42.6209 40.8878 36.0845 42.6912 30.9933 46.2979 27.3475 49.9047 23.7016 54.9503 21.8787 61.4347 21.8787ZM5.36436 7.69904 14.8956 7.69904 14.8956 55.199 36.0675 55.199 36.0675 62.7381 5.36436 62.7381ZM181.466 5.94122 190.411 5.94122 190.411 13.6365 181.466 13.6365ZM160.771 5.94122 169.794 5.94122 169.794 53.7928C169.794 56.5272 169.898 59.5089 170.107 62.7381L161.317 62.7381C161.213 62.3475 161.109 61.2928 161.005 59.574 160.901 57.8553 160.849 56.6574 160.849 55.9803L160.692 55.9803C158.062 60.9542 153.804 63.4412 147.919 63.4412 142.476 63.4412 138.277 61.6704 135.321 58.1287 132.366 54.5871 130.888 49.4568 130.888 42.7381 130.888 36.2537 132.398 31.1561 135.419 27.4451 138.44 23.7342 142.685 21.8787 148.153 21.8787 151.122 21.8787 153.622 22.4256 155.653 23.5193 157.685 24.6131 159.403 26.41 160.81 28.91L160.966 28.91C160.914 27.8683 160.868 26.8331 160.829 25.8045 160.79 24.7759 160.771 23.7407 160.771 22.699Z" stroke="#5B9BD5" stroke-linejoin="round" stroke-miterlimit="10" fill="#FFFFFF" fill-rule="evenodd"/></g></g><path d="M674.45 531.421 683.864 531.421 683.864 541.656 674.45 541.656ZM655.45 531.421 664.864 531.421 664.864 541.656 655.45 541.656ZM636.45 531.421 645.864 531.421 645.864 541.656 636.45 541.656ZM452.95 522.085 448.692 522.241C444.864 522.424 442.11 523.101 440.431 524.273 438.751 525.445 437.911 527.281 437.911 529.781 437.911 533.999 439.916 536.109 443.927 536.109 446.713 536.109 448.914 535.139 450.528 533.198 452.143 531.258 452.95 528.765 452.95 525.718ZM401.63 507.437C394.078 507.437 390.302 512.137 390.302 521.538 390.302 526.148 391.226 529.676 393.075 532.124 394.924 534.572 397.607 535.796 401.122 535.796 408.726 535.796 412.528 531.044 412.528 521.538 412.528 512.137 408.896 507.437 401.63 507.437ZM606.575 507.398C603.32 507.398 600.801 508.537 599.017 510.816 597.233 513.094 596.341 516.616 596.341 521.382 596.341 530.549 599.726 535.132 606.497 535.132 609.909 535.132 612.5 533.915 614.271 531.48 616.041 529.045 616.927 525.614 616.927 521.187 616.927 516.76 616.041 513.355 614.271 510.972 612.5 508.589 609.935 507.398 606.575 507.398ZM490.302 507.398C483.583 507.398 480.224 512.111 480.224 521.538 480.224 531.07 483.544 535.835 490.185 535.835 493.7 535.835 496.37 534.618 498.192 532.183 500.015 529.748 500.927 526.213 500.927 521.577 500.927 516.942 500.028 513.42 498.232 511.011 496.435 508.602 493.791 507.398 490.302 507.398ZM521.466 501.616 530.45 501.616 530.45 541.656 521.466 541.656ZM603.88 500.835C606.849 500.835 609.459 501.506 611.712 502.847 613.965 504.188 615.677 506.083 616.849 508.531L617.005 508.531C617.005 506.291 617.174 503.986 617.513 501.616L626.107 501.616C625.898 503.96 625.794 506.929 625.794 510.523L625.794 540.484C625.794 545.015 624.114 548.915 620.755 552.183 617.396 555.451 612.617 557.085 606.419 557.085 596.185 557.085 590.273 553.504 588.685 546.343L597.63 544.976C598.62 548.648 601.64 550.484 606.693 550.484 610 550.484 612.526 549.494 614.271 547.515 616.015 545.536 616.888 543.231 616.888 540.601L616.888 536.382C616.888 535.523 616.927 534.663 617.005 533.804L616.849 533.804C615.495 536.486 613.704 538.485 611.478 539.8 609.251 541.115 606.458 541.773 603.099 541.773 597.89 541.773 593.893 540.002 591.107 536.46 588.32 532.919 586.927 527.893 586.927 521.382 586.927 514.768 588.392 509.689 591.321 506.148 594.251 502.606 598.437 500.835 603.88 500.835ZM564.458 500.796C568.911 500.796 572.251 502.111 574.478 504.741 576.704 507.372 577.818 511.434 577.818 516.929L577.818 541.656 568.794 541.656 568.794 519.273C568.794 515.21 568.163 512.294 566.9 510.523 565.636 508.752 563.638 507.866 560.903 507.866 557.961 507.866 555.65 508.999 553.97 511.265 552.29 513.531 551.45 516.603 551.45 520.484L551.45 541.656 542.466 541.656 542.466 510.835C542.466 507.736 542.349 504.663 542.114 501.616L550.669 501.616C550.956 505.523 551.099 508.101 551.099 509.351L551.255 509.351C552.791 506.356 554.575 504.182 556.607 502.827 558.638 501.473 561.255 500.796 564.458 500.796ZM446.427 500.796C451.765 500.796 455.678 502.059 458.165 504.585 460.652 507.111 461.896 511.031 461.896 516.343L461.896 541.656 453.224 541.656 452.911 535.327C451.583 537.932 449.982 539.768 448.107 540.835 446.232 541.903 443.927 542.437 441.192 542.437 437.078 542.437 433.933 541.369 431.759 539.234 429.584 537.098 428.497 534.129 428.497 530.327 428.497 526.161 429.982 522.971 432.95 520.757 435.919 518.544 440.294 517.346 446.075 517.163L452.911 516.929 452.911 515.679C452.911 512.58 452.41 510.334 451.407 508.941 450.405 507.547 448.706 506.851 446.31 506.851 444.2 506.851 442.644 507.248 441.642 508.042 440.639 508.837 439.956 510.067 439.591 511.734L430.919 510.366C431.7 506.955 433.334 504.507 435.821 503.023 438.308 501.538 441.844 500.796 446.427 500.796ZM401.435 500.796C408.127 500.796 413.219 502.573 416.708 506.128 420.198 509.683 421.942 514.82 421.942 521.538 421.942 528.075 420.126 533.192 416.493 536.89 412.86 540.588 407.763 542.437 401.2 542.437 394.846 542.437 389.872 540.562 386.278 536.812 382.685 533.062 380.888 527.971 380.888 521.538 380.888 515.002 382.691 509.911 386.298 506.265 389.905 502.619 394.95 500.796 401.435 500.796ZM345.364 486.616 354.896 486.616 354.896 534.116 376.067 534.116 376.067 541.656 345.364 541.656ZM521.466 484.859 530.411 484.859 530.411 492.554 521.466 492.554ZM500.771 484.859 509.794 484.859 509.794 532.71C509.794 535.445 509.898 538.426 510.107 541.656L501.317 541.656C501.213 541.265 501.109 540.21 501.005 538.491 500.901 536.773 500.849 535.575 500.849 534.898L500.692 534.898C498.062 539.872 493.804 542.359 487.919 542.359 482.476 542.359 478.277 540.588 475.321 537.046 472.366 533.504 470.888 528.374 470.888 521.656 470.888 515.171 472.398 510.073 475.419 506.363 478.44 502.652 482.685 500.796 488.153 500.796 491.122 500.796 493.622 501.343 495.653 502.437 497.685 503.531 499.403 505.327 500.81 507.827L500.966 507.827C500.914 506.786 500.868 505.751 500.829 504.722 500.79 503.693 500.771 502.658 500.771 501.616Z" stroke="#5B9BD5" stroke-linejoin="round" stroke-miterlimit="10" fill="#FFFFFF" fill-rule="evenodd"/><text fill="#000000" fill-opacity="0" font-family="Arial,Arial_MSFontService,sans-serif" font-size="72.2266" x="345.364" y="548.057">Loading...</text></g></svg>