<?xml version="1.0" standalone="no"?><!DOCTYPE svg PUBLIC "-//W3C//DTD SVG 1.1//EN" "http://www.w3.org/Graphics/SVG/1.1/DTD/svg11.dtd"><svg t="1618909151308" class="icon" viewBox="0 0 1024 1024" version="1.1" xmlns="http://www.w3.org/2000/svg" p-id="10169" xmlns:xlink="http://www.w3.org/1999/xlink" width="200" height="200"><defs><style type="text/css"></style></defs><path d="M576.074 769.952v111.032c7.892 1.688 15.668 3.682 23.32 5.97 10.944 3.272 2.358 41.052 12.746 45.484 10.81 4.61 40.572-24.084 50.698-18.302A306.172 306.172 0 0 1 774.388 1024h-111.552l-150.834-47.712L365.062 1024h-115.436a306.178 306.178 0 0 1 109.738-108.82c10.18-5.906 29.952 10.1 40.836 5.382 10.884-4.716 12.878-30.156 24.376-33.594a302.708 302.708 0 0 1 23.364-5.984v-111.032" fill="#FFDDCE" p-id="10170"></path><path d="M770.268 562.742c55.058 0 99.69-44.632 99.69-99.69a99.206 99.206 0 0 0-13.158-49.478c23.788-18.22 39.14-46.898 39.14-79.176 0-47.224-32.848-86.75-76.934-97.05a99.2 99.2 0 0 0 15.27-53c0-55.058-44.632-99.69-99.69-99.69-10.338 0-20.308 1.574-29.686 4.496C699.636 39.052 657.266 0 605.768 0c-43.15 0-79.888 27.418-93.764 65.778C498.126 27.418 461.388 0 418.238 0c-51.498 0-93.87 39.052-99.132 89.156a99.622 99.622 0 0 0-29.686-4.496c-55.058 0-99.69 44.632-99.69 99.69a99.2 99.2 0 0 0 15.27 53c-44.086 10.298-76.934 49.826-76.934 97.05 0 32.278 15.354 60.956 39.14 79.176a99.2 99.2 0 0 0-13.158 49.478c0 55.058 44.632 99.69 99.69 99.69" fill="#365E7D" p-id="10171"></path><path d="M506.266 52.892a98.88 98.88 0 0 0-11.106 36.262 99.49 99.49 0 0 0-29.69-4.492c-55.054 0-99.7 44.628-99.7 99.7a99.168 99.168 0 0 0 15.288 52.992c-44.092 10.302-76.934 49.82-76.934 97.044 0 32.286 15.35 60.966 39.126 79.18a99.314 99.314 0 0 0-13.146 49.47c0 55.074 44.628 99.7 99.68 99.7h-176.038c-55.054 0-99.68-44.628-99.68-99.7 0-18.008 4.8-34.882 13.146-49.47-23.776-18.214-39.146-46.894-39.146-79.18 0-47.224 32.862-86.742 76.934-97.044a99.344 99.344 0 0 1-15.268-52.992c0-55.074 44.648-99.7 99.7-99.7 10.344 0 20.294 1.566 29.69 4.492C324.376 39.046 366.758 0.002 418.246 0.002c38.14 0.002 71.27 21.428 88.02 52.89z" fill="#2B4D66" p-id="10172"></path><path d="M476.136 769.958v111.032c-47.244 18.048-87.216 71-111.074 143.01H249.62c42.608-72.01 113.98-124.96 198.33-143.01v-111.032z" fill="#FFCBBE" p-id="10173"></path><path d="M662.842 914.142V1024H361.184v-109.858a303.714 303.714 0 0 1 63.438-27.196 90.916 90.916 0 0 0 8.838 17.966c13.846 21.882 36.55 37.56 63.088 41.99 5.028 0.866 10.178 1.298 15.452 1.298s10.426-0.432 15.452-1.298c33.336-5.562 60.678-28.906 71.948-59.956a302.994 302.994 0 0 1 63.442 27.196z" fill="#FFC250" p-id="10174"></path><path d="M527.456 946.902V1024h-30.906v-77.098c5.028 0.866 10.178 1.298 15.452 1.298s10.426-0.434 15.454-1.298zM433.456 904.91c-30.144 26.208-55.3 67.828-72.278 119.09v-109.858a303.714 303.714 0 0 1 63.438-27.196 91.07 91.07 0 0 0 8.84 17.964z" fill="#E7A52E" p-id="10175"></path><path d="M228.688 545.802m-81.612 0a81.612 81.612 0 1 0 163.224 0 81.612 81.612 0 1 0-163.224 0Z" fill="#FFCBBE" p-id="10176"></path><path d="M795.332 545.802m-81.612 0a81.612 81.612 0 1 0 163.224 0 81.612 81.612 0 1 0-163.224 0Z" fill="#FFCBBE" p-id="10177"></path><path d="M744.146 567.792a15.454 15.454 0 0 1-13.492-22.966c9.852-17.712 26.936-28.268 49.406-30.526 15.354-1.54 27.928 1.39 29.312 1.73a15.452 15.452 0 0 1-7.304 30.03c-0.306-0.072-9.34-2.108-19.656-0.93-11.902 1.362-19.996 6.176-24.746 14.718a15.454 15.454 0 0 1-13.52 7.944zM279.874 567.792a15.448 15.448 0 0 1-13.518-7.944c-4.75-8.542-12.846-13.356-24.748-14.718-10.446-1.194-19.572 0.91-19.664 0.93-8.278 1.95-16.612-3.152-18.6-11.422-1.986-8.27 3.044-16.582 11.304-18.608 1.384-0.338 13.952-3.268 29.312-1.73 22.47 2.258 39.554 12.812 49.404 30.526a15.454 15.454 0 0 1-13.49 22.966z" fill="#EAAC9D" p-id="10178"></path><path d="M754.456 388.35v163.99c0 123.384-100.022 223.406-223.406 223.406h-38.072c-123.384 0-223.428-100.022-223.428-223.406v-163.99c0-0.66 0-1.34 0.022-1.998 0.598-76.082 82.942-122.808 149.508-85.91 27.524 15.246 59.21 23.94 92.936 23.94 75.444 0 140.752-43.512 172.088-106.82 43.488 43.798 70.352 104.142 70.352 170.788z" fill="#FFDDCE" p-id="10179"></path><path d="M584.642 769.254a222.948 222.948 0 0 1-53.586 6.49h-38.072c-123.384 0-223.426-100.022-223.426-223.406v-163.99c0-0.66 0-1.34 0.02-1.998 0.598-76.082 82.944-122.808 149.508-85.91a189.272 189.272 0 0 0 28.616 12.896c-19.696 17.552-32.654 42.996-32.88 73.012-0.02 0.66-0.02 1.34-0.02 1.998v163.99c-0.002 104.906 72.332 192.938 169.84 216.918z" fill="#FFCBBE" p-id="10180"></path><path d="M407.156 453.574c-14.908 0-27.036 16.616-27.036 37.04s12.128 37.04 27.036 37.04 27.036-16.616 27.036-37.04-12.128-37.04-27.036-37.04zM616.864 453.574c-14.908 0-27.036 16.616-27.036 37.04s12.128 37.04 27.036 37.04 27.036-16.616 27.036-37.04c-0.002-20.424-12.13-37.04-27.036-37.04z" fill="#2B4D66" p-id="10181"></path><path d="M512.002 607.144c-28.646 0-54.366-19.156-62.544-46.586a15.454 15.454 0 0 1 29.618-8.83c4.302 14.432 17.844 24.512 32.926 24.512 15.102 0 28.64-10.072 32.922-24.494a15.452 15.452 0 1 1 29.628 8.796c-8.148 27.438-33.87 46.602-62.55 46.602z" fill="#EAA598" p-id="10182"></path><path d="M300.082 154.656c10.856-5.342 7.052-21.682-5.046-21.682h-8.48a27.978 27.978 0 0 1-19.862-8.242 27.956 27.956 0 0 1-8.22-19.828c-0.018-15.472-11.82-28.118-27.292-28.118H129.66a35.586 35.586 0 0 0-25.198 10.426 35.546 35.546 0 0 0-10.424 25.598c0.216 19.668 16.864 35.224 36.534 35.224h0.18a36.184 36.184 0 0 0-4.842 9.58 35.768 35.768 0 0 0-1.686 12.774c0.96 19.12 17.38 33.83 36.526 33.83h106.934a58.114 58.114 0 0 1 32.398-49.562z" fill="#FFC250" p-id="10183"></path><path d="M236.55 204.222H159.8c-19.676 0-35.624-15.948-35.624-35.624 0-3.832 0.618-7.52 1.73-10.982a36.154 36.154 0 0 1 4.842-9.58h-1.092c-19.676 0-35.624-15.948-35.624-35.624 0-9.828 3.976-18.748 10.426-25.198a35.586 35.586 0 0 1 25.198-10.426h76.748a35.62 35.62 0 0 0-25.198 10.426 35.624 35.624 0 0 0-10.426 25.198c0 19.676 15.948 35.624 35.624 35.624h1.072a36.128 36.128 0 0 0-4.822 9.58 35.196 35.196 0 0 0-1.73 10.982c0.002 19.676 15.948 35.624 35.626 35.624z" fill="#E7A52E" p-id="10184"></path><path d="M893.432 148.038h-0.186a36.184 36.184 0 0 1 4.842 9.58c1.298 3.996 1.916 8.304 1.69 12.774-0.948 19.12-17.368 33.832-36.53 33.832h-106.932a58.094 58.094 0 0 0-32.388-49.572c-10.858-5.336-7.046-21.676 5.048-21.676h8.468c7.768 0 14.772-3.152 19.862-8.242s8.22-12.074 8.22-19.82c0.02-13.536 9.066-24.91 21.696-27.546a26.496 26.496 0 0 1 5.604-0.576h101.514c9.848 0 18.75 3.996 25.198 10.426a35.416 35.416 0 0 1 10.426 25.59c-0.206 19.674-16.854 35.23-36.532 35.23z" fill="#FFC250" p-id="10185"></path><path d="M812.914 112.414c0 3.832 0.598 7.52 1.73 10.982a35.71 35.71 0 0 0 4.822 9.58h-1.072c-19.676 0-35.644 15.948-35.644 35.624 0 9.848 3.998 18.75 10.446 25.198s15.37 10.426 25.198 10.426h-62.078a58.094 58.094 0 0 0-32.388-49.572c-10.858-5.336-7.046-21.676 5.048-21.676h7.664c7.768 0 14.772-3.152 19.862-8.242s8.242-12.094 8.242-19.862c0-13.598 9.664-24.93 22.478-27.506a26.496 26.496 0 0 1 5.604-0.576h55.712c-19.676 0-35.624 15.948-35.624 35.624z" fill="#E7A52E" p-id="10186"></path><path d="M430.432 426.364a15.408 15.408 0 0 1-10.926-4.526c-12.262-12.26-32.21-12.26-44.47 0a15.454 15.454 0 0 1-21.854-21.854c24.31-24.312 63.868-24.312 88.178 0a15.45 15.45 0 0 1 0 21.854 15.404 15.404 0 0 1-10.928 4.526zM659.898 426.364a15.408 15.408 0 0 1-10.926-4.526c-12.262-12.26-32.21-12.26-44.47 0a15.454 15.454 0 0 1-21.854-21.854c24.31-24.312 63.868-24.312 88.178 0a15.45 15.45 0 0 1-10.928 26.38z" fill="#EAAC9D" p-id="10187"></path><path d="M576.08 769.958V822.6a225.25 225.25 0 0 1-45.04 4.532h-38.054c-15.432 0-30.494-1.566-45.04-4.532v-52.642z" fill="#FFCBBE" p-id="10188"></path></svg>