<?xml version="1.0" standalone="no"?><!DOCTYPE svg PUBLIC "-//W3C//DTD SVG 1.1//EN" "http://www.w3.org/Graphics/SVG/1.1/DTD/svg11.dtd"><svg t="1610631407553" class="icon" viewBox="0 0 1024 1024" version="1.1" xmlns="http://www.w3.org/2000/svg" p-id="1797" xmlns:xlink="http://www.w3.org/1999/xlink" width="200" height="200"><defs><style type="text/css"></style></defs><path d="M531.8 385v483.3h0.1V385h-0.1z" fill="#343535" p-id="1798"></path><path d="M670.9 497.1h86v16h-86zM670.9 625.1h86v16h-86zM233.9 241.1h86v16h-86zM384 241.1h86v16h-86zM233.9 369h86v16h-86zM384 369h86v16h-86zM234 497.5h86v16h-86zM384 497.2h86v16h-86z" fill="#39393A" p-id="1799"></path><path d="M398.3 704.4c-11.9-11.9-28.4-19.3-46.5-19.3-36.2 0-65.8 29.6-65.8 65.8v117.4h20V750.9c0-12.2 4.8-23.6 13.5-32.3 8.7-8.7 20.2-13.5 32.3-13.5 12.2 0 23.6 4.8 32.3 13.5 8.7 8.7 13.5 20.2 13.5 32.3v117.4h20V750.9c0-18.1-7.4-34.5-19.3-46.5z" fill="#E73B37" p-id="1800"></path><path d="M575.8 429v437.9h0.1V429h-0.1zM286.2 868.3h131.6-131.6z" fill="#343535" p-id="1801"></path><path d="M896 868.3V385H575.9V111.6H128v756.7H64v44h896v-44h-64z m-364.1 0H172V155.6h359.9v712.7z m320.1-1.5H575.8V429H852v437.8z" fill="#39393A" p-id="1802"></path></svg>