<?xml version="1.0" encoding="utf-8"?>
<!-- Generator: Adobe Illustrator 23.0.2, SVG Export Plug-In . SVG Version: 6.00 Build 0)  -->
<svg version="1.1" id="图层_1" xmlns="http://www.w3.org/2000/svg" xmlns:xlink="http://www.w3.org/1999/xlink" x="0px" y="0px"
	 viewBox="0 0 1024 1024" style="enable-background:new 0 0 1024 1024;" xml:space="preserve">
<style type="text/css">
	.st0{fill:#DCAB78;}
	.st1{fill:#130D0B;}
	.st2{fill:#F1C18F;}
	.st3{fill:#D8A066;}
	.st4{opacity:0.5;fill:#FFFFFF;}
	.st5{fill:#FFFFFF;}
	.st6{fill:#1B1310;}
	.st7{enable-background:new    ;}
	.st8{fill:#231815;}
	.st9{opacity:0.5;fill:#9A7956;}
	.st10{opacity:0.5;fill:#7C6145;}
	.st11{fill:#B48656;}
	.st12{fill:#7E5D3A;}
	.st13{opacity:0.5;}
	.st14{fill:#292929;}
	.st15{fill:#272727;}
</style>
<g>
	<g>
		<polygon class="st0" points="511.45,913.01 165.56,712 164.43,311.98 510.32,512.99 		"/>
	</g>
	<g>
		<polygon class="st3" points="858.44,312 859.57,712.02 511.45,913.01 510.32,512.99 		"/>
	</g>
	<g class="st13">
		<polygon class="st5" points="290.25,752.02 188.69,693 188.36,575.55 289.92,634.57 		"/>
	</g>
	<polygon class="st0" points="272.22,650.48 272.19,641.43 206.4,603.19 206.42,612.25 	"/>
	<polygon class="st0" points="272.22,671.36 272.19,662.31 206.4,624.08 206.42,633.13 	"/>
	<polygon class="st0" points="272.22,692.25 272.19,683.19 206.4,644.96 206.42,654.01 	"/>
	<polygon class="st9" points="511.09,610.23 510.87,512.69 164.98,311.68 165.2,409.22 	"/>
	<polygon class="st10" points="511.09,590.6 510.87,512.69 164.98,311.68 165.2,389.59 	"/>
	<polygon class="st0" points="511.06,587.59 510.86,537.76 143.62,324.34 143.74,374.13 	"/>
	<polygon class="st11" points="859.21,409.03 858.99,311.7 510.87,512.69 511.09,610.02 	"/>
	<polygon class="st12" points="859.21,389.4 858.99,311.7 510.87,512.69 511.09,590.39 	"/>
	<g>
		<polygon class="st2" points="510.8,537.73 143.62,324.35 513.17,110.99 880.35,324.37 		"/>
	</g>
	<polygon class="st3" points="880.38,374.32 880.36,324.36 510.87,537.69 511.06,587.59 	"/>
	<g>
		<path class="st5" d="M642.21,557.54c-9.96,5.75-17.96,19.67-17.93,31.05c0.03,11.45,8.08,16.11,18.04,10.35l85.29-49.24
			c9.96-5.75,18.02-19.71,17.99-31.16c-0.03-11.38-8.14-16-18.11-10.25L642.21,557.54z"/>
	</g>
	<g>
		<path class="st1" d="M644.58,562.97c-6.71,3.87-12.14,13.28-12.12,20.92c0.02,7.71,5.49,10.82,12.2,6.95l80.72-46.6
			c6.64-3.84,12.08-13.25,12.06-20.95c-0.02-7.63-5.49-10.75-12.13-6.91L644.58,562.97z"/>
	</g>
</g>
</svg>
